<svg width="48" height="48" viewBox="0 0 48 48" fill="none" xmlns="http://www.w3.org/2000/svg">
<path d="M0 24C0 10.7452 10.7452 0 24 0C37.2548 0 48 10.7452 48 24C48 37.2548 37.2548 48 24 48C10.7452 48 0 37.2548 0 24Z" fill="white"/>
<path fill-rule="evenodd" clip-rule="evenodd" d="M19.2929 18.2929C19.6834 17.9024 20.3166 17.9024 20.7071 18.2929L25.7071 23.2929C26.0976 23.6834 26.0976 24.3166 25.7071 24.7071L20.7071 29.7071C20.3166 30.0976 19.6834 30.0976 19.2929 29.7071C18.9024 29.3166 18.9024 28.6834 19.2929 28.2929L22.5858 25H13C12.4477 25 12 24.5523 12 24C12 23.4477 12.4477 23 13 23H22.5858L19.2929 19.7071C18.9024 19.3166 18.9024 18.6834 19.2929 18.2929ZM32 22C30.8954 22 30 22.8954 30 24C30 25.1046 30.8954 26 32 26C33.1046 26 34 25.1046 34 24C34 22.8954 33.1046 22 32 22ZM28 24C28 21.7909 29.7909 20 32 20C34.2091 20 36 21.7909 36 24C36 26.2091 34.2091 28 32 28C29.7909 28 28 26.2091 28 24Z" fill="#8D80D1"/>
</svg>
