<svg width="48" height="48" viewBox="0 0 48 48" fill="none" xmlns="http://www.w3.org/2000/svg">
<path d="M0 24C0 10.7452 10.7452 0 24 0C37.2548 0 48 10.7452 48 24C48 37.2548 37.2548 48 24 48C10.7452 48 0 37.2548 0 24Z" fill="white"/>
<path fill-rule="evenodd" clip-rule="evenodd" d="M26.5212 13.6081C27.3319 12.7973 28.6464 12.7973 29.4572 13.6081L34.3919 18.5428C35.2027 19.3536 35.2027 20.6681 34.3919 21.4788L21.2582 34.6126C21.0101 34.8606 20.6737 35 20.3228 35H14.3228C13.5922 35 13 34.4077 13 33.6772V27.6772C13 27.3263 13.1394 26.9899 13.3874 26.7418L26.5212 13.6081ZM28.043 15.0223C28.0133 14.9926 27.9651 14.9926 27.9354 15.0223L26.1751 16.7825L31.2175 21.8249L32.9777 20.0646C33.0074 20.0349 33.0074 19.9867 32.9777 19.957L28.043 15.0223ZM29.8032 23.2391L24.7609 18.1968L15 27.9577V33H20.0423L29.8032 23.2391ZM25.468 22.532C25.8585 22.9225 25.8585 23.5557 25.468 23.9462L20.0876 29.3267C19.697 29.7172 19.0639 29.7172 18.6733 29.3267C18.2828 28.9361 18.2828 28.303 18.6733 27.9124L24.0538 22.532C24.4443 22.1415 25.0775 22.1415 25.468 22.532Z" fill="#8D80D1"/>
</svg>
