<svg width="48" height="48" viewBox="0 0 48 48" fill="none" xmlns="http://www.w3.org/2000/svg">
<path d="M0 24C0 10.7452 10.7452 0 24 0C37.2548 0 48 10.7452 48 24C48 37.2548 37.2548 48 24 48C10.7452 48 0 37.2548 0 24Z" fill="white"/>
<path fill-rule="evenodd" clip-rule="evenodd" d="M14 21.2636C14 17.6511 16.6257 15 20.0483 15C21.6675 15 23.0203 15.6588 24.0021 16.7016C24.985 15.6574 26.3279 15 27.9517 15C31.3743 15 34 17.6511 34 21.2636C34 23.4216 33.0589 25.4793 31.5184 27.3629C29.9784 29.246 27.7957 31.0117 25.1854 32.6166L25.1707 32.6256L25.1556 32.6342C25.0244 32.7087 24.8602 32.7916 24.6849 32.8588C24.5282 32.9187 24.2773 33 24 33C23.7225 33 23.4715 32.9188 23.3132 32.8576C23.1367 32.7894 22.9706 32.7042 22.836 32.624L22.8243 32.6171L22.8244 32.617C20.2094 31.0121 18.0243 29.2464 16.4829 27.3632C14.9412 25.4794 14 23.4217 14 21.2636ZM20.0483 17C17.7791 17 16 18.7062 16 21.2636C16 22.8179 16.6766 24.4421 18.0307 26.0965C19.3839 27.7499 21.3702 29.3772 23.8639 30.9084C23.9074 30.934 23.9561 30.9589 24.001 30.9784C24.0483 30.9584 24.1019 30.932 24.1541 30.9028C26.6389 29.3734 28.6197 27.7482 29.9702 26.0968C31.3233 24.4423 32 22.818 32 21.2636C32 18.7062 30.2209 17 27.9517 17C26.6382 17 25.6158 17.6559 24.9415 18.7519C24.5086 19.4556 23.4845 19.4509 23.0566 18.7467C22.3996 17.6656 21.3638 17 20.0483 17Z" fill="#8D80D1"/>
</svg>
