<svg width="48" height="48" viewBox="0 0 48 48" fill="none" xmlns="http://www.w3.org/2000/svg">
<path d="M0 24C0 10.7452 10.7452 0 24 0C37.2548 0 48 10.7452 48 24C48 37.2548 37.2548 48 24 48C10.7452 48 0 37.2548 0 24Z" fill="white"/>
<path fill-rule="evenodd" clip-rule="evenodd" d="M25 18.0807V21.9546L24.0988 22.044C20.5266 22.3986 17.5684 24.8439 16.4644 28.1386C18.5987 26.5505 21.3004 25.7313 24.0973 26.0048L25 26.0931V29.9195L32.3992 24.0001L25 18.0807ZM23 17.0404C23 15.7826 24.4549 15.0834 25.437 15.8691L34.1367 22.8288C34.8873 23.4293 34.8873 24.5709 34.1367 25.1714L25.437 32.1311C24.4549 32.9168 23 32.2175 23 30.9598V27.953C20.2292 27.9636 17.6437 29.2668 15.9676 31.3818C15.3477 32.164 13.9717 31.7868 14.0049 30.668C14.1607 25.4241 17.9847 21.1026 23 20.1811V17.0404Z" fill="#8D80D1"/>
</svg>
