<svg width="158" height="32" fill="none" xmlns="http://www.w3.org/2000/svg"><g clip-path="url(#clip0_1_173)"><path d="M35.633 7.927v16.8h3.157V11.143h.239l4.042 13.584h5.43v-16.8h-3.158v13.584h-.239L41.062 7.927h-5.43zm15.457 7.92l2.775.936c.215-1.08.933-1.896 2.44-1.896 1.53 0 2.2.864 2.2 1.968v.672h-3.253c-2.679 0-4.592 1.272-4.592 3.72 0 2.448 1.913 3.816 4.353 3.816 2.2 0 2.99-1.2 3.205-1.728h.335v1.392h2.87v-7.656c0-2.976-1.962-4.584-5.07-4.584-3.086 0-4.689 1.56-5.263 3.36zm2.583 5.328c0-.816.67-1.392 1.794-1.392h3.038v.192c0 1.584-1.196 2.64-2.87 2.64-1.292 0-1.962-.6-1.962-1.44zm13.257-8.352h-2.967v11.904h3.014v-6.912c0-1.68 1.1-2.496 2.63-2.496h1.77v-2.544h-1.243c-1.507 0-2.511.456-2.966 1.728h-.239v-1.68zm8.945 0h-2.966v11.904h3.014v-6.912c0-1.68 1.1-2.496 2.63-2.496h1.77v-2.544H79.08c-1.507 0-2.511.456-2.966 1.728h-.24v-1.68zm5.719 3.024l2.775.936c.215-1.08.933-1.896 2.44-1.896 1.53 0 2.2.864 2.2 1.968v.672h-3.253c-2.679 0-4.592 1.272-4.592 3.72 0 2.448 1.913 3.816 4.353 3.816 2.2 0 2.99-1.2 3.205-1.728h.335v1.392h2.87v-7.656c0-2.976-1.961-4.584-5.07-4.584-3.086 0-4.689 1.56-5.263 3.36zm2.584 5.328c0-.816.67-1.392 1.793-1.392h3.038v.192c0 1.584-1.196 2.64-2.87 2.64-1.292 0-1.961-.6-1.961-1.44zm8.812-5.904h2.966v6.768c0 1.632 1.052 2.688 2.63 2.688h3.349V22.28h-2.296c-.43 0-.67-.24-.67-.72v-6.288h3.253v-2.448H98.97V9.127h-3.014v3.696H92.99v2.448zm10.619-5.904c0 1.224.933 2.064 2.128 2.064 1.196 0 2.129-.84 2.129-2.064 0-1.224-.933-2.064-2.129-2.064-1.195 0-2.128.84-2.128 2.064zm3.635 3.456h-3.013v11.904h3.013V12.823zm1.394 0l4.09 11.904h4.449l4.09-11.904h-3.253l-2.942 9.36h-.239l-2.942-9.36h-3.253zm13.07 5.952c0 3.792 2.464 6.288 6.003 6.288 3.253 0 4.664-1.848 5.334-3.12l-2.463-1.296c-.407.912-1.101 1.824-2.775 1.824s-2.942-1.176-3.014-2.808h8.635v-1.032c0-3.648-2.272-6.144-5.764-6.144-3.492 0-5.956 2.496-5.956 6.288zm3.109-1.368c.192-1.32 1.196-2.328 2.823-2.328 1.554 0 2.583.96 2.726 2.328h-5.549zm14.575-9.48v16.8h7.653c2.87 0 4.927-1.728 4.927-4.56 0-2.496-1.626-3.456-2.822-3.792v-.24c1.196-.36 2.727-1.296 2.727-3.744 0-2.736-2.01-4.464-4.927-4.464h-7.558zm3.157 2.88h4.066c1.339 0 2.248.768 2.248 2.016s-.909 2.016-2.248 2.016h-4.066v-4.032zm0 6.912h4.114c1.387 0 2.296.768 2.296 2.064s-.909 2.064-2.296 2.064h-4.114V17.72zm11.534-9.792v16.8h3.157v-16.8h-3.157z" fill="#fff"/><path fill-rule="evenodd" clip-rule="evenodd" d="M21.248 16c-1.29 3.908-4.962 6.727-9.29 6.727-4.327 0-7.998-2.819-9.289-6.727 1.29-3.908 4.962-6.727 9.29-6.727 4.327 0 7.999 2.82 9.29 6.727zm.466-3.851C19.547 9.088 15.985 7.09 11.96 7.09c-4.027 0-7.589 1.997-9.756 5.058C2.59 7.082 6.81 3.09 11.96 3.09s9.368 3.99 9.755 9.058zM23.517 16c.261-.986.4-2.022.4-3.09 0-6.628-5.354-12-11.958-12C5.354.91 0 6.281 0 12.91c0 1.068.14 2.104.4 3.09-.26.986-.4 2.022-.4 3.091 0 6.627 5.354 12 11.959 12 6.604 0 11.958-5.373 11.958-12a12.05 12.05 0 00-.4-3.09zm-1.803 3.852c-2.167 3.06-5.729 5.057-9.755 5.057-4.027 0-7.589-1.997-9.756-5.057.387 5.067 4.607 9.057 9.756 9.057s9.368-3.99 9.755-9.057zM16.307 16a4.356 4.356 0 01-4.348 4.364A4.356 4.356 0 017.61 16a4.356 4.356 0 014.349-4.364A4.356 4.356 0 0116.307 16z" fill="#8D80D1"/></g><defs><clipPath id="clip0_1_173"><path fill="#fff" d="M0 0h158v32H0z"/></clipPath></defs></svg>