<svg width="48" height="48" fill="none" xmlns="http://www.w3.org/2000/svg"><path d="M0 24C0 10.745 10.745 0 24 0s24 10.745 24 24-10.745 24-24 24S0 37.255 0 24z" fill="#fff"/><path fill-rule="evenodd" clip-rule="evenodd" d="M26.521 13.608c.81-.81 2.125-.81 2.936 0l4.935 4.935c.81.81.81 2.125 0 2.936L21.258 34.613a1.323 1.323 0 01-.935.387h-6c-.73 0-1.323-.592-1.323-1.323v-6c0-.35.14-.687.387-.935l13.134-13.134zm1.522 1.414a.076.076 0 00-.108 0l-1.76 1.76 5.043 5.043 1.76-1.76a.076.076 0 000-.108l-4.935-4.935zm1.76 8.217l-5.042-5.042L15 27.957V33h5.042l9.761-9.76zm-4.335-.707a1 1 0 010 1.414l-5.38 5.38a1 1 0 01-1.415-1.414l5.38-5.38a1 1 0 011.415 0z" fill="#8D80D1"/></svg>