<svg width="48" height="48" fill="none" xmlns="http://www.w3.org/2000/svg"><path d="M0 24C0 10.745 10.745 0 24 0s24 10.745 24 24-10.745 24-24 24S0 37.255 0 24z" fill="#fff"/><path fill-rule="evenodd" clip-rule="evenodd" d="M14 21.264C14 17.65 16.626 15 20.048 15c1.62 0 2.972.659 3.954 1.702A5.307 5.307 0 0127.952 15C31.374 15 34 17.651 34 21.264c0 2.158-.941 4.215-2.482 6.099-1.54 1.883-3.722 3.649-6.333 5.254l-.014.009-.015.008a3.54 3.54 0 01-.471.225c-.157.06-.408.141-.685.141-.277 0-.529-.081-.687-.142a3.221 3.221 0 01-.477-.234l-.012-.007c-2.615-1.605-4.8-3.37-6.341-5.254C14.94 25.48 14 23.422 14 21.263zM20.048 17C17.78 17 16 18.706 16 21.264c0 1.554.677 3.178 2.03 4.832 1.354 1.654 3.34 3.281 5.834 4.812.043.026.092.05.137.07.047-.02.1-.046.153-.075 2.485-1.53 4.466-3.155 5.816-4.806 1.353-1.655 2.03-3.279 2.03-4.833C32 18.706 30.22 17 27.952 17c-1.314 0-2.336.656-3.01 1.752a1.105 1.105 0 01-1.885-.005C22.4 17.666 21.364 17 20.048 17z" fill="#8D80D1"/></svg>