<svg width="48" height="48" fill="none" xmlns="http://www.w3.org/2000/svg"><path d="M0 24C0 10.745 10.745 0 24 0s24 10.745 24 24-10.745 24-24 24S0 37.255 0 24z" fill="#fff"/><path fill-rule="evenodd" clip-rule="evenodd" d="M25 18.08v3.875l-.901.089a9.008 9.008 0 00-7.635 6.095 10.99 10.99 0 017.633-2.134l.903.088v3.826L32.4 24 25 18.08zm-2-1.04c0-1.257 1.455-1.957 2.437-1.17l8.7 6.959a1.5 1.5 0 010 2.342l-8.7 6.96c-.982.786-2.437.087-2.437-1.171v-3.007a9.049 9.049 0 00-7.032 3.429c-.62.782-1.996.405-1.963-.714.156-5.244 3.98-9.565 8.995-10.487v-3.14z" fill="#8D80D1"/></svg>